<?xml version="1.0" encoding="utf-8"?>
<!-- Generator: Adobe Illustrator 22.0.1, SVG Export Plug-In . SVG Version: 6.00 Build 0)  -->
<svg version="1.1" id="logo" xmlns="http://www.w3.org/2000/svg" xmlns:xlink="http://www.w3.org/1999/xlink" x="0px" y="0px"
	 viewBox="0 0 500 58.5" enable-background="new 0 0 500 58.5" xml:space="preserve">
<g id="panaplus">
	<path fill="#231815" d="M59.5,35.1c-2.7-9.3-6.6-25.9-6.6-25.9l-13.7,4.3c0,0,1.5,5.6,5.4,19.7C49,49.3,59.7,54.5,70.7,54.7
		C63.6,49.2,60.9,39.8,59.5,35.1z"/>
	<path fill="#231815" d="M11.2,35.1c-1.3,4.6-4,14-11.2,19.6c11-0.2,21.7-5.4,26.1-21.6c3.9-14.1,5.4-19.7,5.4-19.7L17.8,9.2
		C17.8,9.2,13.9,25.9,11.2,35.1z"/>
	<path fill="#231815" d="M61.1,12.9c3.6,0,6.5-2.9,6.5-6.5c0-3.6-2.9-6.5-6.5-6.5c-3.6,0-6.4,2.9-6.4,6.5
		C54.6,10,57.5,12.9,61.1,12.9z"/>
	<path fill="#231815" d="M205.7,0c-3.6,0-6.5,2.9-6.5,6.4c0,3.6,2.9,6.5,6.5,6.5c3.6,0,6.5-2.9,6.5-6.5C212.1,2.9,209.3,0,205.7,0z"
		/>
	<path fill="#231815" d="M122.4,3.5h-14.4v11.6H87.4v12.6h20.3C106.8,41,103.1,52.4,92,57.1c12.4-1.3,27.2-7.6,29.9-29.4h11.4V15.1
		h-10.8V3.5z"/>
	<path fill="#231815" d="M155.4,24h23.8c-2,16.3-8.4,27.9-18.3,33c14.6-3.3,30.3-8.3,38.4-45.6h-44V24z"/>
	<path fill="#231815" d="M297.6,8.5v12.6H319c-3.7,17-14.8,30.2-24.8,35.3c15.5-2.8,37.4-10.6,45.6-47.9H297.6z"/>
	<path fill="#231815" d="M230.3,30.6h22.4c-1.2,14-5.6,21.7-15.8,26.4c17.9-3.1,29.2-10.5,35.7-39h-42.3V30.6z"/>
	<rect x="237.8" y="3.6" fill="#231815" width="26.8" height="10"/>
	<path fill="#231815" d="M378.5,10.6c1.2,1.6,2.8,3.2,4.9,4.9c-0.9-1.1-1.1-3.2-1.1-5.4c3.8-0.7,7.5-2.1,9.8-4.7l-9.6-0.1
		c0.1-1.2,0.2-2.2,0.2-2.9h-6.8c0.1,1,0.2,1.9,0.4,2.8l-5.7,0v5.6C372.3,10.8,375.3,10.9,378.5,10.6z"/>
	<path fill="#231815" d="M408.8,10.1c-0.3,1.8-0.8,3.6-1.6,5.4c2-1.3,3.8-3,5.3-4.8c3.1,0.3,6.1,0.3,8.8,0.3V5.1l-5.6,0.1
		c0.5-1.4,0.8-2.7,0.8-4h-7.9c0.1,1,0.3,2.5,0.3,4.1l-10.6,0.2C401.7,8,405.3,9.4,408.8,10.1z"/>
	<path fill="#231815" d="M389.2,15.8c6.1-0.6,10.3-3.2,11-7.5h-8.5C391.7,11.1,392.1,14.5,389.2,15.8z"/>
	<path fill="#231815" d="M401,41.6h20.3v-5.2H401v-1.6h2.8h6.1v-7.9c2.5,5,5.5,7.8,11.5,8.1v-7.8c-5.1,0.3-7.5,1.1-11.5-1.3v-3.5
		c5.6-0.4,10.5-1.9,11.4-7.5h-9.1c0,3.5-0.8,6.3-2.3,7.2v-6h-6.1h-4.4h-7.8h-4.5h-6v6.3c-1.5-0.9-2.5-3.3-2.5-7.6h-7.6
		c0.9,5.5,4.7,7.4,10.1,7.8v2.4c-4.2,2.6-7.4,2.4-11.1,1.7v7.8c4.6,0,8.5-3.5,11.1-8.8v8.8h6h2.5v1.6H370v5.2h19.6V48l-8.3-5.4
		c-2.7,4.9-8.1,11-17.8,14.2c13.1-0.9,21.7-4.8,26-8.6v9.6H401V44.5c5.3,9.9,15.2,14,21.5,14v-8.6c-7.3,0-17.1-3.3-21.5-6.2V41.6z
		 M399.4,31.4h-7.8v-4.2h4.3v-3.4h-4.3v-4.2h7.8V31.4z"/>
	<path fill="#231815" d="M478.8,46.3h1.4V34.5h-1.4h-4h-5.7H468h-4.4v11.8h4.4h1.1h5.7H478.8z M469.1,37.4h5.7v6h-5.7V37.4z"/>
	<path fill="#231815" d="M497.2,18.6v-2V7V5.7V3.8h-34.8h-14.5V7v9.6v2v1.2v6.1c0,6.5,0.4,23.1-5.6,29.4c12.8-9.5,20.1-17,20.1-26.1
		c0-2.7,0-6.1,0-9.4h34.8V18.6z M486.7,16.6h-24.3c0-3.7,0-7.2,0-9.6h24.3V16.6z"/>
	<path fill="#231815" d="M465.3,25.2v3.2h20.2c0,0,0,5.6,0,5.8c0,3.8,0.4,18.9-13,24.3c26,0,27.6-20,27.6-24.7v-5.4v-3.2H465.3z"/>
	<path fill="#231815" d="M324.8,42.3l14.5,14.5c4-4,4-10.5,0-14.5C335.3,38.3,328.8,38.3,324.8,42.3z"/>
</g>
</svg>
