<svg version="1" xmlns="http://www.w3.org/2000/svg" width="682.667" height="682.667" viewBox="0 0 512.000000 512.000000"><path d="M242 23.1c-5.5.7-15.4 2.5-23.7 4.4-5.9 1.4-23.8 8.2-32.1 12.2-19.9 9.7-37.7 24.1-48.5 39.4-8.7 12.4-16.9 31.6-19.3 45.4-.4 2.2-.9 4.9-1.1 6-.2 1.1-.6 12.8-.8 26-.6 44.5-2.7 112.1-4 128.5-.2 3-.7 11.3-1 18.5-.4 7.1-.8 14.6-1 16.5-.2 1.9-.6 8.4-1 14.5-.3 6-.8 12.6-1 14.5-.2 1.9-.7 7.3-1 12-.4 4.7-.8 10.1-1 12-.2 1.9-.7 6.9-1 11-.4 4.1-.8 8.6-1 10-.2 1.4-.7 5.9-1 10-.4 4.1-.8 8.2-1 9-.2.9-.6 4.7-1 8.5-.3 3.9-.8 8.1-1 9.5-.7 5.2-1.5 10.7-2 15-.6 4.9-3.4 24-4.1 28-.2 1.4-.6 4.3-.9 6.5-.3 2.2-.8 5.3-1.1 7-.6 2.9-.5 2.8 5.7-2.5 10.8-9.1 36-35 44.5-45.6 10.1-12.6 20.5-27.4 27.1-38.4 11-18.3 23.1-45.2 28.3-63 1.3-4.1 2.6-7.8 2.9-8.2.4-.4 4.5.5 9.1 2.1 17.3 5.8 29.3 7.5 52.5 7.5 17.4 0 22.9-.4 32.3-2.2 26.7-5.1 52.1-16.5 73.3-32.8 7.3-5.6 21.5-19.5 26.5-25.9 2.1-2.8 4.1-5.2 4.4-5.5 4.4-4.4 16.8-27.4 21-39.1 9.8-26.7 12-56.1 6.4-83.4-6.1-30.2-20.8-56.9-43.5-79.5-32.2-32-73.8-48.9-119.9-48.7-8 0-17.4.4-21 .8zm35.3 89.5c9.4 4.8 12.5 13.3 8.7 24.3-3.2 9.7-5 20.1-5.4 31.6-.1 2.9 0 3 4.9 3.1 7.5.1 21.1-2.2 29.3-4.9 8.3-2.7 14.1-2.3 19.2 1.3 7.7 5.5 9.8 16.6 4.4 24.2-5.8 8.3-14.5 10.1-25.6 5.4-2.1-.9-3.9-1.6-4-1.5-.2 0-1.4-.2-2.8-.5-4-.9-8.9-1.5-17.6-2.2l-8.1-.6.3 4c.4 7.7 1.5 17.1 2.4 20.2.5 1.7.8 3.1.8 3.3-.1.1.6 2.4 1.5 5.2 3.9 12 2.4 19.4-5.1 25.2-3.2 2.4-4.6 2.8-10.3 2.8-5.6 0-7.1-.4-10.2-2.8-7.2-5.4-8.9-12.6-5.7-23 1.1-3.7 2.1-6.8 2.1-6.9 0-.2.4-2.1.9-4.3.9-3.7 1.7-10.5 2.4-19.8l.2-3.8-8 .6c-11.7.8-21.1 2.6-27.3 5.2-8.8 3.6-19.7 0-23.9-8-7.3-13.8 6.9-30.4 21.6-25.1 10 3.7 16.4 4.9 30.1 5.9l7.6.6-.4-5.3c-.7-10-2.6-21.3-5-28.7-2.6-8.4-2.7-9.2-1.3-14.3 2.9-10.3 15-15.9 24.3-11.2z"/></svg>