<svg id="logo" xmlns="http://www.w3.org/2000/svg" viewBox="0 0 500 58.5"><title>logo-white</title><g id="panaplus"><path d="M59.51,35.14c-2.71-9.28-6.6-25.91-6.6-25.91L39.17,13.49l5.41,19.68C49,49.31,59.67,54.5,70.7,54.73,63.56,49.16,60.86,39.76,59.51,35.14Z" style="fill:#fff"/><path d="M11.18,35.14c-1.35,4.62-4,14-11.18,19.59,11-.23,21.66-5.42,26.11-21.56l5.41-19.68L17.78,9.23S13.89,25.86,11.18,35.14Z" style="fill:#fff"/><path d="M61.09,12.91a6.46,6.46,0,1,0-6.44-6.46A6.46,6.46,0,0,0,61.09,12.91Z" style="fill:#fff"/><path d="M205.7,0a6.46,6.46,0,1,0,6.45,6.45A6.46,6.46,0,0,0,205.7,0Z" style="fill:#fff"/><path d="M122.38,3.5H107.94V15.12H87.38V27.71H107.7C106.8,41,103.05,52.36,92,57.09c12.44-1.31,27.18-7.61,29.87-29.38H133.2V15.12H122.38Z" style="fill:#fff"/><path d="M155.4,24h23.81c-2,16.3-8.36,27.86-18.27,33,14.62-3.33,30.26-8.31,38.42-45.62h-44Z" style="fill:#fff"/><path d="M297.6,8.53v12.6H319c-3.71,17-14.83,30.15-24.79,35.34,15.51-2.82,37.44-10.63,45.6-47.94Z" style="fill:#fff"/><path d="M230.3,30.6h22.45c-1.22,14-5.59,21.68-15.85,26.45,17.87-3.07,29.23-10.49,35.73-39H230.3Z" style="fill:#fff"/><rect x="237.78" y="3.57" width="26.79" height="10.05" style="fill:#fff"/><path d="M378.51,10.62a28.5,28.5,0,0,0,4.85,4.9c-.87-1.11-1.14-3.19-1.14-5.4,3.78-.7,7.49-2.06,9.82-4.72l-9.59-.08c.1-1.2.19-2.22.19-2.85H375.8a19.23,19.23,0,0,0,.36,2.8l-5.68,0v5.58A78.91,78.91,0,0,0,378.51,10.62Z" style="fill:#fff"/><path d="M408.76,10.13a19.56,19.56,0,0,1-1.58,5.39,24.41,24.41,0,0,0,5.34-4.81,84,84,0,0,0,8.85.28V5.15l-5.55.08a11.34,11.34,0,0,0,.83-4h-7.94c.12,1,.29,2.46.33,4.11l-10.56.16A24.7,24.7,0,0,0,408.76,10.13Z" style="fill:#fff"/><path d="M389.2,15.76c6.06-.58,10.26-3.22,10.95-7.45h-8.5C391.65,11.1,392.1,14.53,389.2,15.76Z" style="fill:#fff"/><path d="M401,41.57h20.34V36.39H401v-1.6h8.82V26.94c2.5,5,5.55,7.75,11.52,8.11V27.23c-5.12.33-7.49,1.12-11.52-1.27V22.5c5.58-.37,10.54-1.93,11.41-7.45h-9.13c0,3.46-.82,6.3-2.28,7.22v-6H381.09v6.32c-1.47-.87-2.54-3.25-2.54-7.58h-7.61c.86,5.47,4.72,7.41,10.15,7.84v2.43c-4.21,2.57-7.42,2.36-11.09,1.65v7.82c4.63,0,8.46-3.45,11.09-8.76v8.76h8.55v1.6H370v5.18h19.64V48l-8.26-5.42c-2.65,4.92-8.07,11.05-17.79,14.25,13.11-.95,21.73-4.82,26.05-8.65v9.57H401V44.46c5.27,9.93,15.22,14,21.48,14V49.88c-7.28,0-17.07-3.29-21.48-6.15Zm-1.66-10.14h-7.8v-4.2h4.26V23.87h-4.26v-4.2h7.8Z" style="fill:#fff"/><path d="M478.82,46.32h1.45V34.5h-16.7V46.32h15.25Zm-9.77-8.92h5.75v6h-5.75Z" style="fill:#fff"/><path d="M497.16,18.63V3.82H447.88V25.91c0,6.48.38,23.13-5.6,29.41,12.8-9.47,20.07-17,20.07-26.1V19.79h34.81Zm-10.5-2H462.35V7h24.31Z" style="fill:#fff"/><path d="M465.28,25.25v3.16h20.16v5.78c0,3.75.39,18.93-13,24.31,26,0,27.59-20,27.59-24.72V25.25Z" style="fill:#fff"/><path d="M324.8,42.32l14.48,14.47A10.24,10.24,0,0,0,324.8,42.32Z" style="fill:#fff"/></g></svg>